<svg width="400" height="400" viewBox="0 0 400 400" fill="none" xmlns="http://www.w3.org/2000/svg">
<rect width="400" height="400" fill="#0B1F39"/>
<path d="M121.056 83.3973L115.094 86.0691C94.0319 95.5075 81.5822 117.573 84.3939 140.482L85.8125 152.04C85.9578 153.224 86.1988 154.393 86.5333 155.538L88.0891 160.862C88.131 161.005 88.209 161.135 88.3156 161.24C88.7499 161.664 89.4746 161.523 89.7185 160.967L92.3973 154.856L94.7225 149.93C97.1899 144.703 102.451 141.369 108.231 141.369H111.088C114.627 141.369 117.9 143.247 119.686 146.303C120.577 147.827 121.047 149.562 121.047 151.328V154.776C121.047 159.549 119.539 164.177 116.992 168.213C109.302 180.396 93.7948 208.317 98.7639 228.514C100.558 239.335 105.22 247.929 110.989 254.693C129.816 276.766 162.225 278.222 191.079 275.2C191.079 300.098 208.057 301.136 217.607 304.248C224.79 311.641 235.627 322.009 239.506 325.7C240.435 326.584 241.665 327.072 242.946 327.072C246.791 327.072 249.204 322.924 247.305 319.582L242.365 310.887C241.438 309.256 240.951 307.411 240.951 305.535V302.173C240.951 302.173 256.867 303.211 277.028 291.799L308.155 309.321C310.373 310.57 313.175 309.962 314.677 307.907C316.195 305.828 315.897 302.937 313.986 301.213L303.555 291.799C303.555 291.799 330.083 252.376 305.677 243.039C302.108 211.633 298.539 179.288 294.001 153.584C290.203 132.075 285.218 108.916 269.6 93.6464C264.087 84.9392 265.274 73.6175 254.723 72.9303C254.127 72.8916 253.617 73.3386 253.546 73.9308C252.463 82.8651 254.588 89.3243 256.241 92.7942C256.86 94.0931 255.982 95.8406 254.55 95.978C245.055 96.8892 239.862 99.1157 235.616 101.838C231.747 104.318 226.672 102.902 225.095 98.5845C223.643 94.609 222.653 90.4823 221.469 86.4187C220.718 83.8411 219.657 80.7052 218.062 76.2411C217.82 75.5658 217.052 75.2623 216.455 75.6583C214.973 76.6396 212.333 78.7246 210.179 82.2345C208.798 84.4838 207.817 87.7085 207.148 90.6398C206.081 95.3178 206.608 100.167 207.919 104.783C210.079 112.384 209.808 120.47 207.145 127.91L195.916 159.277C191.301 172.169 188.578 185.662 187.831 199.335L185.392 243.996C185.389 244.049 185.397 244.102 185.416 244.151C185.54 244.485 185.184 244.793 184.871 244.624L176.697 240.184C176.383 240.013 176.094 239.8 175.839 239.55L173.961 237.714C170.6 234.428 168.311 230.185 167.799 225.514C167.201 220.06 166.706 212.354 167.552 205.55C168.061 201.459 175.174 190.113 177.496 186.707C186.924 172.88 192.623 161.215 193.922 144.53C194.483 137.322 194.201 129.381 192.14 121.657C183.727 90.1258 150.838 70.0518 121.056 83.3973Z" fill="url(#paint0_linear_382_897)"/>
<path d="M241.075 302.168C236.972 301.128 282.106 230.425 234.921 235.624V210.598H245.183C245.818 210.598 246.421 210.325 246.84 209.849L252.244 203.703C252.431 203.491 252.747 203.454 252.978 203.618L256.808 206.339C257.531 206.853 258.499 206.347 258.42 205.463C258.25 203.55 257.776 200.787 256.462 199.233C255.233 197.779 254.717 197.236 253.425 196.597C252.769 196.272 251.988 196.351 251.379 196.756C241.306 203.449 244.808 204.337 234.921 203.33C234.921 186.716 244.153 164.922 244.153 164.922L270.784 174.831C271.271 175.012 271.818 174.829 272.098 174.392L284.158 155.564L289.286 198.193L279.413 193.644C278.567 193.255 277.541 193.432 277.118 194.262C275.854 196.744 275.762 200.695 275.854 203.165C275.888 204.08 276.961 204.477 277.617 203.837L281.086 200.456C281.237 200.308 281.456 200.259 281.652 200.34C282.908 200.855 287.628 202.992 291.145 207.31C291.272 207.466 291.352 207.663 291.377 207.863C299.47 273.114 275.951 291.77 275.951 291.77C275.951 291.77 254.775 305.944 241.075 302.168Z" fill="white"/>
<defs>
<linearGradient id="paint0_linear_382_897" x1="285.55" y1="161.378" x2="316" y2="306.861" gradientUnits="userSpaceOnUse">
<stop stop-color="#FBB0D9"/>
<stop offset="1" stop-color="#A56BC6"/>
</linearGradient>
</defs>
</svg>
