<svg width="48" height="48" viewBox="0 0 48 48" fill="none" xmlns="http://www.w3.org/2000/svg">
<g clip-path="url(#clip0_385_1663)">
<path d="M-0.00415039 8C15.7948 12.165 31.1868 12.6346 47.9958 8L47.5813 17.3849C44.5964 18.4943 42.4783 21.1961 42.4783 24.3471C42.4783 27.2803 44.3099 29.8256 46.9707 31.0574L47.5888 40C32.2119 37.2573 17.325 37.7269 0.387809 40L1.0059 31.0574C3.67424 29.8256 5.5059 27.2803 5.5059 24.3471C5.5059 21.1961 3.39535 18.4943 0.402885 17.3849L-0.00415039 8Z" fill="url(#paint0_linear_385_1663)"/>
<path d="M27.3425 27.6274C27.1541 28.1242 26.8828 28.5258 26.5285 28.8252C26.1893 29.1315 25.7973 29.3492 25.3677 29.4785C24.938 29.6079 24.5084 29.6623 24.0712 29.6351C23.6265 29.6079 23.2345 29.5058 22.8652 29.3288C22.5034 29.1519 22.2018 28.9137 21.9757 28.6142C21.7496 28.3148 21.6365 27.9473 21.629 27.5321V21.7746C21.6365 21.3663 21.7496 21.0124 21.9833 20.7197C22.2094 20.4339 22.5109 20.1957 22.8878 20.0324C23.2647 19.8622 23.6642 19.7669 24.1013 19.7329C24.5385 19.7057 24.9682 19.7533 25.3903 19.869C25.8049 19.9847 26.1817 20.1889 26.5059 20.4611C26.83 20.7401 27.0712 21.1076 27.2295 21.5636L31.7898 20.2569C31.5184 19.3246 31.1189 18.5351 30.5762 17.9022C30.041 17.2625 29.4154 16.7589 28.7069 16.3777C27.9983 16.0034 27.2672 15.7244 26.4983 15.5611C25.7295 15.3909 24.9908 15.3093 24.2747 15.3161C23.4833 15.3161 22.6993 15.4045 21.9305 15.5747C21.1616 15.7448 20.4456 16.0034 19.7672 16.3505C19.0888 16.6976 18.4933 17.1264 17.9732 17.6504C17.4531 18.1676 17.0536 18.7733 16.7596 19.4675C16.4581 20.1617 16.3149 20.9375 16.3074 21.8154V27.5798C16.3074 28.4509 16.4581 29.2267 16.7596 29.9277C17.0536 30.6151 17.4531 31.2208 17.9732 31.738C18.4933 32.2552 19.0888 32.684 19.7672 33.0243C20.4456 33.3646 21.1692 33.6232 21.9305 33.8001C22.6993 33.9703 23.4833 34.0519 24.2747 34.0519C24.9908 34.0519 25.7295 33.9703 26.4833 33.7933C27.2446 33.6232 27.9757 33.3441 28.6843 32.9562C29.4003 32.5683 30.041 32.0511 30.6214 31.4181C31.1943 30.7852 31.6616 29.9958 32.0159 29.0702L27.3425 27.6546V27.6274Z" fill="white"/>
</g>
<defs>
<linearGradient id="paint0_linear_385_1663" x1="23.7106" y1="43.9677" x2="23.7106" y2="14.6202" gradientUnits="userSpaceOnUse">
<stop stop-color="#A82400"/>
<stop offset="0.99" stop-color="#D52E02"/>
<stop offset="1" stop-color="#D52E02"/>
</linearGradient>
<clipPath id="clip0_385_1663">
<rect width="48" height="32" fill="white" transform="translate(-0.00415039 8)"/>
</clipPath>
</defs>
</svg>
