<svg width="28" height="28" viewBox="0 0 28 28" fill="none" xmlns="http://www.w3.org/2000/svg">
<path d="M14 14.2083C14.6964 14.2083 15.3049 13.9564 15.7973 13.464C16.2897 12.9716 16.5416 12.3631 16.5416 11.6667C16.5416 10.9702 16.2897 10.3618 15.7973 9.86936C15.3049 9.37695 14.6964 9.12499 14 9.12499C13.3035 9.12499 12.6951 9.37695 12.2027 9.86936C11.7102 10.3618 11.4583 10.9702 11.4583 11.6667C11.4583 12.3631 11.7102 12.9716 12.2027 13.464C12.6951 13.9564 13.3035 14.2083 14 14.2083ZM14 25.0084C11.0525 22.4676 8.85792 20.1191 7.39949 17.9636C5.88714 15.7283 5.16663 13.7108 5.16663 11.9C5.16663 9.10103 6.06152 6.9187 7.82019 5.29671C9.60767 3.64816 11.6607 2.83333 14 2.83333C16.3392 2.83333 18.3923 3.64816 20.1797 5.29671C21.9384 6.9187 22.8333 9.10103 22.8333 11.9C22.8333 13.7108 22.1128 15.7283 20.6004 17.9636C19.142 20.1191 16.9475 22.4676 14 25.0084Z" stroke="white"/>
</svg>
