<svg width="48" height="48" viewBox="0 0 48 48" fill="none" xmlns="http://www.w3.org/2000/svg">
<path d="M10.6112 40.9999C9.60098 40.9999 8.74585 40.6499 8.04585 39.9499C7.34585 39.2499 6.99585 38.3948 6.99585 37.3845V10.6154C6.99585 9.60514 7.34585 8.75 8.04585 8.05C8.74585 7.35 9.60098 7 10.6112 7H23.2265V9.99995H10.6112C10.4574 9.99995 10.3163 10.0641 10.1881 10.1923C10.0599 10.3205 9.9958 10.4615 9.9958 10.6154V37.3845C9.9958 37.5384 10.0599 37.6794 10.1881 37.8077C10.3163 37.9359 10.4574 38 10.6112 38H37.3803C37.5342 38 37.6753 37.9359 37.8035 37.8077C37.9317 37.6794 37.9958 37.5384 37.9958 37.3845V24.7693H40.9958V37.3845C40.9958 38.3948 40.6458 39.2499 39.9458 39.9499C39.2458 40.6499 38.3906 40.9999 37.3803 40.9999H10.6112ZM19.4343 30.6692L17.3266 28.5615L35.8881 9.99995H27.9958V7H40.9958V20H37.9958V12.1076L19.4343 30.6692Z" fill="white"/>
</svg>
