<svg width="715" height="784" viewBox="0 0 715 784" fill="none" xmlns="http://www.w3.org/2000/svg">
<path d="M117.352 16.9556L98.5844 25.3659C32.2841 55.0763 -6.90552 124.535 1.94514 196.647L6.41074 233.031C6.86801 236.756 7.62681 240.439 8.67967 244.042L13.5772 260.801C13.7089 261.252 13.9544 261.661 14.2902 261.989C15.6571 263.325 17.9385 262.882 18.706 261.132L27.1386 241.894L34.458 226.389C42.2247 209.936 58.786 199.44 76.98 199.44H85.9731C97.1136 199.44 107.417 205.352 113.039 214.971C115.844 219.77 117.322 225.23 117.322 230.789V241.643C117.322 256.667 112.577 271.234 104.558 283.939C80.3531 322.289 31.5376 410.182 47.1794 473.759C52.8285 507.818 67.5009 534.872 85.6609 556.163C144.925 625.646 246.944 630.23 337.771 620.715C337.771 699.092 391.214 702.358 421.275 712.155C443.887 735.426 478.002 768.062 490.212 779.683C493.134 782.464 497.006 784 501.04 784C513.141 784 520.74 770.942 514.762 760.422L499.21 733.053C496.292 727.917 494.758 722.112 494.758 716.206V705.623C494.758 705.623 544.86 708.889 608.322 672.966L706.305 728.123C713.288 732.054 722.107 730.141 726.834 723.671C731.615 717.127 730.676 708.029 724.66 702.599L691.826 672.966C691.826 672.966 775.329 548.87 698.506 519.478C687.271 420.618 676.036 318.801 661.751 237.89C649.797 170.183 634.103 97.2838 584.941 49.2179C567.588 21.8093 571.323 -13.8296 538.109 -15.9926C536.236 -16.1147 534.63 -14.7073 534.405 -12.8433C530.996 15.2804 537.687 35.6127 542.891 46.5352C544.839 50.624 542.073 56.1248 537.565 56.5575C507.678 59.4256 491.332 66.4343 477.967 75.0025C465.786 82.8111 449.811 78.3524 444.846 64.7622C440.275 52.248 437.159 39.2578 433.433 26.4663C431.07 18.3526 427.731 8.48127 422.707 -5.57103C421.947 -7.69662 419.531 -8.65185 417.648 -7.40553C412.984 -4.31638 404.674 2.24662 397.894 13.2952C393.549 20.3757 390.46 30.5265 388.354 39.7536C384.995 54.479 386.654 69.7435 390.781 84.2724C397.579 108.2 396.727 133.654 388.343 157.072L352.998 255.81C338.47 296.393 329.897 338.866 327.547 381.906L319.87 522.492C319.861 522.658 319.886 522.825 319.944 522.981C320.334 524.03 319.214 525.002 318.231 524.467L292.499 510.491C291.511 509.954 290.601 509.282 289.797 508.496L283.886 502.717C273.308 492.375 266.101 479.018 264.489 464.312C262.607 447.146 261.048 422.887 263.712 401.469C265.313 388.593 287.704 352.877 295.014 342.156C324.692 298.631 342.631 261.913 346.72 209.391C348.486 186.701 347.598 161.704 341.111 137.392C314.628 38.1357 211.098 -25.0537 117.352 16.9556Z" fill="url(#paint0_linear_150_19756)"/>
<path d="M495.153 705.604C482.237 702.332 624.311 479.773 475.78 496.137V417.361H508.085C510.081 417.361 511.981 416.502 513.299 415.002L530.311 395.656C530.898 394.988 531.895 394.872 532.62 395.387L544.675 403.953C546.952 405.57 549.999 403.977 549.752 401.195C549.217 395.174 547.725 386.477 543.588 381.585C539.718 377.008 538.093 375.3 534.027 373.287C531.963 372.265 529.505 372.511 527.586 373.786C495.88 394.856 506.904 397.65 475.78 394.48C475.78 342.182 504.84 273.578 504.84 273.578L588.672 304.771C590.203 305.341 591.925 304.766 592.806 303.39L630.769 244.122L646.913 378.312L615.833 363.992C613.171 362.766 609.94 363.323 608.61 365.936C604.629 373.751 604.341 386.185 604.63 393.96C604.737 396.843 608.113 398.092 610.179 396.078L621.098 385.434C621.575 384.97 622.264 384.816 622.88 385.068C626.835 386.69 641.692 393.417 652.764 407.011C653.164 407.502 653.416 408.122 653.494 408.75C678.968 614.15 604.937 672.875 604.937 672.875C604.937 672.875 538.276 717.491 495.153 705.604Z" fill="white"/>
<defs>
<linearGradient id="paint0_linear_150_19756" x1="635.149" y1="262.425" x2="731" y2="720.38" gradientUnits="userSpaceOnUse">
<stop stop-color="#FBB0D9"/>
<stop offset="1" stop-color="#A56BC6"/>
</linearGradient>
</defs>
</svg>
