<svg width="48" height="48" viewBox="0 0 48 48" fill="none" xmlns="http://www.w3.org/2000/svg">
<path d="M9.2266 38C8.3061 38 7.53752 37.6917 6.92085 37.075C6.30418 36.4583 5.99585 35.6898 5.99585 34.7693V13.2307C5.99585 12.3102 6.30418 11.5417 6.92085 10.925C7.53752 10.3083 8.3061 10 9.2266 10H38.7651C39.6856 10 40.4542 10.3083 41.0709 10.925C41.6875 11.5417 41.9958 12.3102 41.9958 13.2307V34.7693C41.9958 35.6898 41.6875 36.4583 41.0709 37.075C40.4542 37.6917 39.6856 38 38.7651 38H9.2266ZM23.9958 24.2308L7.99585 13.7693V34.7693C7.99585 35.1282 8.11123 35.4231 8.342 35.6539C8.57277 35.8846 8.86763 36 9.2266 36H38.7651C39.1241 36 39.4189 35.8846 39.6497 35.6539C39.8805 35.4231 39.9958 35.1282 39.9958 34.7693V13.7693L23.9958 24.2308ZM23.9958 22L39.3805 12H8.61125L23.9958 22ZM7.99585 13.7693V12V34.7693C7.99585 35.1282 8.11123 35.4231 8.342 35.6539C8.57277 35.8846 8.86763 36 9.2266 36H7.99585V13.7693Z" fill="white"/>
</svg>
