<svg width="48" height="48" viewBox="0 0 48 48" fill="none" xmlns="http://www.w3.org/2000/svg">
<path d="M24 34.7C26.4 34.7 28.4167 33.8833 30.05 32.25C31.6833 30.6167 32.5 28.6 32.5 26.2C32.5 23.7667 31.6833 21.7417 30.05 20.125C28.4167 18.5083 26.4 17.7 24 17.7C21.5667 17.7 19.5417 18.5083 17.925 20.125C16.3083 21.7417 15.5 23.7667 15.5 26.2C15.5 28.6 16.3083 30.6167 17.925 32.25C19.5417 33.8833 21.5667 34.7 24 34.7ZM7 42C6.2 42 5.5 41.7 4.9 41.1C4.3 40.5 4 39.8 4 39V13.35C4 12.5833 4.3 11.8917 4.9 11.275C5.5 10.6583 6.2 10.35 7 10.35H14.35L18 6H30L33.65 10.35H41C41.7667 10.35 42.4583 10.6583 43.075 11.275C43.6917 11.8917 44 12.5833 44 13.35V39C44 39.8 43.6917 40.5 43.075 41.1C42.4583 41.7 41.7667 42 41 42H7Z" fill="white"/>
</svg>
