<svg width="48" height="48" viewBox="0 0 48 48" fill="none" xmlns="http://www.w3.org/2000/svg">
<path d="M6 43.9501V4.05005L9 7.05005L12 4.05005L15 7.05005L18 4.05005L21 7.05005L24 4.05005L27 7.05005L30 4.05005L33 7.05005L36 4.05005L39 7.05005L42 4.05005V43.9501L39 40.9501L36 43.9501L33 40.9501L30 43.9501L27 40.9501L24 43.9501L21 40.9501L18 43.9501L15 40.9501L12 43.9501L9 40.9501L6 43.9501ZM11.85 33.2001H36.35V30.2001H11.85V33.2001ZM11.85 25.5H36.35V22.5H11.85V25.5ZM11.85 17.75H36.35V14.75H11.85V17.75Z" fill="white"/>
</svg>
