<svg width="731" height="800" viewBox="0 0 731 800" fill="none" xmlns="http://www.w3.org/2000/svg">
<path d="M116.647 32.9556L97.8791 41.3659C31.5787 71.0763 -7.61084 140.535 1.23982 212.647L5.70542 249.031C6.16269 252.756 6.92149 256.439 7.97435 260.042L12.8718 276.801C13.0035 277.252 13.2491 277.661 13.5848 277.989C14.9518 279.325 17.2332 278.882 18.0007 277.132L26.4333 257.894L33.7527 242.389C41.5194 225.936 58.0807 215.44 76.2747 215.44H85.2678C96.4083 215.44 106.712 221.352 112.333 230.971C115.139 235.77 116.617 241.23 116.617 246.789V257.643C116.617 272.667 111.872 287.234 103.853 299.939C79.6478 338.29 30.8323 426.182 46.4741 489.759C52.1232 523.818 66.7956 550.872 84.9555 572.163C144.22 641.646 246.239 646.23 337.066 636.715C337.066 715.092 390.508 718.358 420.569 728.155C443.181 751.426 477.296 784.062 489.507 795.683C492.429 798.464 496.301 800 500.335 800C512.436 800 520.034 786.942 514.056 776.422L498.504 749.053C495.587 743.917 494.052 738.112 494.052 732.206V721.623C494.052 721.623 544.154 724.889 607.617 688.966L705.599 744.123C712.582 748.054 721.402 746.141 726.129 739.671C730.91 733.127 729.971 724.029 723.955 718.599L691.12 688.966C691.12 688.966 774.624 564.87 697.801 535.478C686.566 436.618 675.331 334.801 661.046 253.89C649.091 186.183 633.398 113.284 584.236 65.2179C566.882 37.8093 570.618 2.17044 537.404 0.00737123C535.53 -0.114651 533.925 1.29271 533.699 3.15669C530.291 31.2804 536.982 51.6127 542.185 62.5352C544.133 66.624 541.368 72.1248 536.86 72.5575C506.973 75.4256 490.627 82.4343 477.262 91.0025C465.081 98.8111 449.105 94.3524 444.141 80.7622C439.57 68.248 436.453 55.2578 432.728 42.4663C430.364 34.3526 427.026 24.4813 422.002 10.429C421.242 8.30338 418.825 7.34815 416.943 8.59447C412.278 11.6836 403.969 18.2466 397.189 29.2952C392.843 36.3757 389.754 46.5265 387.649 55.7536C384.289 70.479 385.948 85.7435 390.076 100.272C396.874 124.2 396.022 149.654 387.638 173.072L352.292 271.81C337.765 312.393 329.192 354.866 326.842 397.906L319.164 538.492C319.155 538.658 319.181 538.825 319.239 538.981C319.629 540.03 318.509 541.001 317.525 540.467L291.794 526.491C290.806 525.954 289.896 525.282 289.092 524.496L283.181 518.717C272.603 508.375 265.395 495.018 263.783 480.312C261.902 463.146 260.342 438.887 263.006 417.469C264.608 404.593 286.999 368.877 294.309 358.156C323.987 314.631 341.926 277.913 346.014 225.391C347.781 202.701 346.893 177.704 340.406 153.392C313.923 54.1357 210.393 -9.05375 116.647 32.9556Z" fill="url(#paint0_linear_542_1813)"/>
<path d="M494.448 721.605C481.532 718.332 623.606 495.773 475.074 512.137V433.361H507.379C509.376 433.361 511.276 432.502 512.594 431.002L529.605 411.656C530.193 410.988 531.19 410.872 531.914 411.387L543.97 419.953C546.247 421.57 549.294 419.977 549.047 417.195C548.512 411.174 547.02 402.477 542.882 397.585C539.012 393.008 537.388 391.3 533.322 389.287C531.258 388.265 528.8 388.511 526.881 389.786C495.175 410.856 506.199 413.65 475.074 410.48C475.075 358.182 504.135 289.578 504.135 289.578L587.966 320.771C589.498 321.341 591.219 320.766 592.101 319.39L630.064 260.122L646.208 394.312L615.128 379.992C612.466 378.766 609.235 379.323 607.904 381.936C603.924 389.751 603.635 402.185 603.924 409.96C604.032 412.843 607.408 414.092 609.474 412.078L620.393 401.434C620.87 400.97 621.558 400.816 622.174 401.068C626.13 402.69 640.987 409.417 652.059 423.011C652.459 423.502 652.711 424.122 652.789 424.75C678.263 630.15 604.232 688.875 604.232 688.875C604.232 688.875 537.571 733.491 494.448 721.605Z" fill="white"/>
<defs>
<linearGradient id="paint0_linear_542_1813" x1="634.443" y1="278.425" x2="730.295" y2="736.38" gradientUnits="userSpaceOnUse">
<stop stop-color="#FBB0D9"/>
<stop offset="1" stop-color="#A56BC6"/>
</linearGradient>
</defs>
</svg>
