<svg width="48" height="48" viewBox="0 0 48 48" fill="none" xmlns="http://www.w3.org/2000/svg">
<path d="M29.7693 36C28.6 36 27.6026 35.5872 26.7769 34.7616C25.9513 33.9359 25.5385 32.9385 25.5385 31.7693C25.5385 30.6 25.9513 29.6026 26.7769 28.7769C27.6026 27.9513 28.6 27.5385 29.7693 27.5385C30.9385 27.5385 31.9359 27.9513 32.7616 28.7769C33.5872 29.6026 34 30.6 34 31.7693C34 32.9385 33.5872 33.9359 32.7616 34.7616C31.9359 35.5872 30.9385 36 29.7693 36ZM11.2308 42C10.3103 42 9.54167 41.6917 8.925 41.075C8.30833 40.4583 8 39.6898 8 38.7693V13.2308C8 12.3103 8.30833 11.5417 8.925 10.925C9.54167 10.3083 10.3103 10 11.2308 10H14.7692V5.53845H16.923V10H31.2307V5.53845H33.2308V10H36.7693C37.6898 10 38.4583 10.3083 39.075 10.925C39.6917 11.5417 40 12.3103 40 13.2308V38.7693C40 39.6898 39.6917 40.4583 39.075 41.075C38.4583 41.6917 37.6898 42 36.7693 42H11.2308ZM11.2308 40H36.7693C37.0769 40 37.359 39.8718 37.6154 39.6154C37.8718 39.359 38 39.0769 38 38.7693V21.2308H10V38.7693C10 39.0769 10.1282 39.359 10.3846 39.6154C10.641 39.8718 10.9231 40 11.2308 40ZM10 19.2308H38V13.2308C38 12.9231 37.8718 12.641 37.6154 12.3846C37.359 12.1282 37.0769 12 36.7693 12H11.2308C10.9231 12 10.641 12.1282 10.3846 12.3846C10.1282 12.641 10 12.9231 10 13.2308V19.2308Z" fill="white"/>
</svg>
