<svg width="800" height="800" viewBox="0 0 800 800" fill="none" xmlns="http://www.w3.org/2000/svg">
<rect width="800" height="800" fill="#0B1F39"/>
<path d="M318.334 234.83L312.166 237.594C290.378 247.358 277.499 270.185 280.407 293.883L281.875 305.84C282.025 307.064 282.275 308.275 282.621 309.459L284.23 314.966C284.273 315.114 284.354 315.249 284.464 315.357C284.914 315.796 285.663 315.65 285.916 315.075L288.687 308.753L291.092 303.657C293.645 298.25 299.087 294.801 305.066 294.801H308.022C311.683 294.801 315.069 296.744 316.917 299.905C317.839 301.482 318.324 303.276 318.324 305.103V308.67C318.324 313.608 316.765 318.395 314.13 322.57C306.175 335.174 290.133 364.058 295.273 384.952C297.129 396.145 301.951 405.036 307.919 412.033C327.396 434.867 360.923 436.373 390.772 433.247C390.772 459.004 408.334 460.077 418.214 463.297C425.645 470.944 436.856 481.67 440.869 485.489C441.829 486.403 443.102 486.908 444.427 486.908C448.404 486.908 450.901 482.616 448.937 479.159L443.826 470.164C442.867 468.477 442.363 466.569 442.363 464.628V461.15C442.363 461.15 458.828 462.223 479.684 450.418L511.884 468.544C514.179 469.836 517.078 469.208 518.631 467.081C520.202 464.931 519.894 461.941 517.916 460.156L507.126 450.418C507.126 450.418 534.568 409.636 509.321 399.977C505.629 367.488 501.937 334.027 497.242 307.437C493.314 285.186 488.156 261.229 472 245.433C466.297 236.425 467.525 224.713 456.61 224.002C455.994 223.962 455.466 224.425 455.392 225.037C454.272 234.28 456.471 240.962 458.181 244.551C458.821 245.895 457.912 247.703 456.431 247.845C446.609 248.787 441.237 251.091 436.845 253.907C432.842 256.473 427.592 255.007 425.96 250.541C424.458 246.429 423.434 242.16 422.209 237.956C421.433 235.289 420.335 232.045 418.684 227.427C418.435 226.729 417.64 226.415 417.022 226.824C415.489 227.84 412.758 229.996 410.53 233.627C409.102 235.954 408.087 239.29 407.395 242.323C406.291 247.162 406.836 252.178 408.192 256.953C410.426 264.816 410.146 273.181 407.391 280.878L395.775 313.326C391.001 326.663 388.184 340.621 387.411 354.766L384.888 400.967C384.885 401.022 384.894 401.076 384.913 401.128C385.041 401.472 384.673 401.792 384.35 401.616L375.894 397.023C375.569 396.847 375.27 396.626 375.005 396.367L373.063 394.468C369.587 391.069 367.218 386.68 366.688 381.847C366.07 376.206 365.557 368.233 366.433 361.195C366.959 356.963 374.318 345.226 376.72 341.702C386.473 327.399 392.369 315.332 393.712 298.071C394.293 290.614 394.001 282.4 391.869 274.41C383.166 241.791 349.142 221.025 318.334 234.83Z" fill="url(#paint0_linear_150_19719)"/>
<path d="M442.492 461.144C438.248 460.069 484.938 386.928 436.126 392.306V366.417H446.742C447.398 366.417 448.023 366.135 448.456 365.642L454.046 359.284C454.239 359.065 454.567 359.027 454.805 359.196L458.767 362.011C459.515 362.543 460.517 362.019 460.436 361.105C460.26 359.126 459.769 356.268 458.41 354.66C457.138 353.156 456.604 352.595 455.268 351.933C454.589 351.597 453.782 351.678 453.151 352.097C442.731 359.022 446.354 359.94 436.126 358.898C436.126 341.711 445.676 319.165 445.676 319.165L473.226 329.417C473.729 329.604 474.295 329.415 474.585 328.963L487.06 309.485L492.366 353.585L482.152 348.879C481.277 348.476 480.215 348.659 479.778 349.517C478.47 352.086 478.375 356.172 478.47 358.727C478.505 359.675 479.615 360.085 480.294 359.423L483.882 355.925C484.039 355.773 484.265 355.722 484.468 355.805C485.768 356.338 490.65 358.549 494.289 363.016C494.42 363.177 494.503 363.381 494.529 363.588C502.9 431.089 478.571 450.388 478.571 450.388C478.571 450.388 456.664 465.05 442.492 461.144Z" fill="white"/>
<path d="M310.912 551.384C308.309 551.384 306.389 550.701 305.152 549.336C303.957 547.928 303.36 546.2 303.36 544.152C303.36 543.256 303.467 542.253 303.68 541.144C303.893 539.992 304.107 538.883 304.32 537.816C304.576 536.749 304.747 536.067 304.832 535.768C305.173 534.275 305.493 532.803 305.792 531.352C306.091 529.901 306.24 528.728 306.24 527.832C306.24 525.656 305.472 524.568 303.936 524.568C302.827 524.568 301.845 525.123 300.992 526.232C300.139 527.299 299.456 528.707 298.944 530.456L294.592 551H285.376L290.048 528.92C290.176 528.408 290.24 527.875 290.24 527.32C290.24 525.443 289.6 524.504 288.32 524.504C287.125 524.504 286.08 525.059 285.184 526.168C284.331 527.235 283.648 528.664 283.136 530.456L278.784 551H269.568L276.352 519H285.568L284.864 522.328C287.04 519.896 289.643 518.68 292.672 518.68C296.427 518.68 298.624 520.515 299.264 524.184C301.611 520.557 304.576 518.744 308.16 518.744C310.336 518.744 312.064 519.341 313.344 520.536C314.624 521.731 315.264 523.544 315.264 525.976C315.264 527.213 315.115 528.6 314.816 530.136C314.517 531.629 314.091 533.464 313.536 535.64C313.195 536.963 312.875 538.264 312.576 539.544C312.32 540.781 312.192 541.763 312.192 542.488C312.192 543.341 312.384 544.003 312.768 544.472C313.152 544.941 313.813 545.176 314.752 545.176C316.032 545.176 317.056 544.728 317.824 543.832C318.592 542.893 319.36 541.464 320.128 539.544H322.816C321.237 544.237 319.403 547.395 317.312 549.016C315.264 550.595 313.131 551.384 310.912 551.384ZM329.277 551.384C326.12 551.384 323.666 550.573 321.917 548.952C320.168 547.288 319.293 544.707 319.293 541.208C319.293 538.264 319.869 535.021 321.021 531.48C322.173 527.939 324.05 524.888 326.653 522.328C329.256 519.725 332.562 518.424 336.573 518.424C341.266 518.424 343.613 520.472 343.613 524.568C343.613 526.957 342.93 529.155 341.565 531.16C340.2 533.165 338.386 534.787 336.125 536.024C333.864 537.219 331.453 537.901 328.893 538.072C328.808 539.352 328.765 540.205 328.765 540.632C328.765 542.723 329.128 544.152 329.853 544.92C330.578 545.645 331.752 546.008 333.373 546.008C335.677 546.008 337.64 545.475 339.261 544.408C340.925 543.341 342.738 541.72 344.701 539.544H346.877C342.141 547.437 336.274 551.384 329.277 551.384ZM329.405 535C330.984 534.915 332.477 534.36 333.885 533.336C335.336 532.312 336.488 531.011 337.341 529.432C338.237 527.853 338.685 526.189 338.685 524.44C338.685 522.691 338.152 521.816 337.085 521.816C335.549 521.816 334.034 523.16 332.541 525.848C331.09 528.536 330.045 531.587 329.405 535ZM356.016 567C353.968 567 352.261 566.467 350.896 565.4C349.53 564.333 348.848 562.797 348.848 560.792C348.848 558.36 349.829 556.397 351.792 554.904C353.754 553.453 356.25 552.237 359.28 551.256L360.048 547.864C357.872 550.211 355.312 551.384 352.368 551.384C349.936 551.384 347.909 550.552 346.288 548.888C344.666 547.224 343.855 544.621 343.855 541.08C343.855 537.923 344.474 534.616 345.712 531.16C346.992 527.661 348.869 524.717 351.344 522.328C353.861 519.896 356.848 518.68 360.304 518.68C362.053 518.68 363.354 518.979 364.208 519.576C365.061 520.173 365.488 520.963 365.488 521.944V522.328L366.192 519H375.408L369.072 548.696C371.12 548.013 372.762 546.989 374 545.624C375.237 544.259 376.282 542.232 377.136 539.544H379.824C378.672 543.341 377.114 546.136 375.152 547.928C373.189 549.677 370.97 550.872 368.496 551.512L367.536 556.12C366.682 560.259 365.21 563.096 363.12 564.632C361.029 566.211 358.661 567 356.016 567ZM356.528 545.176C357.509 545.176 358.512 544.728 359.536 543.832C360.56 542.936 361.264 541.72 361.648 540.184L364.912 525.016C364.912 524.504 364.698 523.992 364.272 523.48C363.845 522.925 363.184 522.648 362.288 522.648C360.581 522.648 359.045 523.651 357.68 525.656C356.314 527.619 355.248 530.008 354.48 532.824C353.712 535.597 353.328 538.051 353.328 540.184C353.328 542.317 353.626 543.683 354.224 544.28C354.864 544.877 355.632 545.176 356.528 545.176ZM354.544 562.008C355.269 562.008 355.973 561.517 356.656 560.536C357.338 559.555 357.872 558.147 358.256 556.312L358.64 554.456C354.458 555.992 352.368 557.805 352.368 559.896C352.368 560.451 352.56 560.941 352.944 561.368C353.328 561.795 353.861 562.008 354.544 562.008ZM383.461 551.384C381.413 551.384 379.749 550.744 378.469 549.464C377.232 548.184 376.613 546.264 376.613 543.704C376.613 542.637 376.784 541.251 377.125 539.544L381.477 519H390.693L386.085 540.76C385.957 541.4 385.893 541.997 385.893 542.552C385.893 544.301 386.533 545.176 387.813 545.176C389.008 545.176 390.032 544.685 390.885 543.704C391.738 542.68 392.421 541.293 392.933 539.544L397.285 519H406.501L401.893 540.76C401.722 541.4 401.637 542.083 401.637 542.808C401.637 543.661 401.829 544.28 402.213 544.664C402.64 545.005 403.322 545.176 404.261 545.176C405.456 545.176 406.48 544.664 407.333 543.64C408.229 542.616 408.933 541.251 409.445 539.544H412.133C410.554 544.152 408.592 547.288 406.245 548.952C403.941 550.573 401.616 551.384 399.269 551.384C397.434 551.384 395.962 550.872 394.853 549.848C393.786 548.824 393.146 547.309 392.933 545.304C391.482 547.651 389.946 549.251 388.325 550.104C386.746 550.957 385.125 551.384 383.461 551.384ZM413.79 519H423.006L422.174 522.968C423.624 521.688 424.926 520.707 426.078 520.024C427.272 519.341 428.552 519 429.918 519C431.283 519 432.35 519.469 433.118 520.408C433.928 521.347 434.334 522.477 434.334 523.8C434.334 525.037 433.928 526.125 433.118 527.064C432.307 528.003 431.176 528.472 429.726 528.472C428.787 528.472 428.147 528.259 427.806 527.832C427.507 527.363 427.272 526.701 427.102 525.848C426.974 525.293 426.846 524.888 426.718 524.632C426.59 524.376 426.355 524.248 426.014 524.248C425.118 524.248 424.35 524.44 423.71 524.824C423.112 525.165 422.323 525.784 421.342 526.68L416.222 551H407.005L413.79 519ZM442.844 551.256C439.687 551.256 437.191 550.445 435.356 548.824C433.521 547.203 432.604 544.643 432.604 541.144C432.604 538.2 433.18 534.979 434.332 531.48C435.484 527.939 437.361 524.888 439.964 522.328C442.567 519.725 445.895 518.424 449.948 518.424C454.983 518.424 457.692 521.304 458.076 527.064C459.015 526.851 459.847 526.339 460.572 525.528C461.297 524.675 461.98 523.715 462.62 522.648H464.668C463.516 524.952 462.492 526.765 461.596 528.088C460.7 529.368 459.527 530.413 458.076 531.224C457.82 535.235 456.988 538.755 455.58 541.784C454.215 544.813 452.423 547.16 450.204 548.824C447.985 550.445 445.532 551.256 442.844 551.256ZM445.404 545.496C446.983 545.496 448.455 544.216 449.82 541.656C451.185 539.096 452.124 535.939 452.636 532.184C451.612 531.8 451.1 530.84 451.1 529.304C451.1 527.64 451.697 526.531 452.892 525.976C452.807 524.611 452.572 523.672 452.188 523.16C451.847 522.605 451.271 522.328 450.46 522.328C449.052 522.328 447.708 523.352 446.428 525.4C445.148 527.405 444.103 529.859 443.292 532.76C442.524 535.619 442.14 538.136 442.14 540.312C442.14 542.36 442.375 543.747 442.844 544.472C443.313 545.155 444.167 545.496 445.404 545.496ZM471.728 551.256C470.32 551.256 469.125 550.765 468.144 549.784C467.162 548.803 466.672 547.608 466.672 546.2C466.672 544.792 467.162 543.597 468.144 542.616C469.125 541.592 470.32 541.08 471.728 541.08C473.136 541.08 474.33 541.592 475.312 542.616C476.336 543.597 476.848 544.792 476.848 546.2C476.848 547.608 476.336 548.803 475.312 549.784C474.33 550.765 473.136 551.256 471.728 551.256ZM490.652 551.384C487.495 551.384 485.041 550.573 483.292 548.952C481.543 547.288 480.668 544.707 480.668 541.208C480.668 538.264 481.244 535.021 482.396 531.48C483.548 527.939 485.425 524.888 488.028 522.328C490.631 519.725 493.937 518.424 497.948 518.424C502.641 518.424 504.988 520.472 504.988 524.568C504.988 526.957 504.305 529.155 502.94 531.16C501.575 533.165 499.761 534.787 497.5 536.024C495.239 537.219 492.828 537.901 490.268 538.072C490.183 539.352 490.14 540.205 490.14 540.632C490.14 542.723 490.503 544.152 491.228 544.92C491.953 545.645 493.127 546.008 494.748 546.008C497.052 546.008 499.015 545.475 500.636 544.408C502.3 543.341 504.113 541.72 506.076 539.544H508.252C503.516 547.437 497.649 551.384 490.652 551.384ZM490.78 535C492.359 534.915 493.852 534.36 495.26 533.336C496.711 532.312 497.863 531.011 498.716 529.432C499.612 527.853 500.06 526.189 500.06 524.44C500.06 522.691 499.527 521.816 498.46 521.816C496.924 521.816 495.409 523.16 493.916 525.848C492.465 528.536 491.42 531.587 490.78 535ZM513.359 551.384C511.311 551.384 509.582 551 508.174 550.232C506.766 549.421 505.721 548.397 505.038 547.16C504.356 545.88 504.014 544.557 504.014 543.192C504.014 541.784 504.356 540.568 505.038 539.544C505.678 538.477 506.468 537.709 507.407 537.24C509.071 534.253 510.521 531.245 511.759 528.216C512.996 525.144 514.169 521.837 515.279 518.296L524.751 517.016C524.964 522.477 525.327 528.387 525.839 534.744C526.052 537.304 526.159 539.16 526.159 540.312C526.159 542.915 525.497 545.048 524.175 546.712C522.852 548.376 521.209 549.571 519.247 550.296C517.327 551.021 515.364 551.384 513.359 551.384ZM511.311 546.328C512.889 546.328 514.212 545.859 515.279 544.92C516.345 543.981 516.879 542.467 516.879 540.376C516.879 539.096 516.751 537.304 516.495 535C516.068 530.136 515.791 526.872 515.663 525.208C514.639 528.579 512.911 532.611 510.479 537.304C511.46 537.816 511.951 538.563 511.951 539.544C511.951 540.355 511.673 541.08 511.119 541.72C510.607 542.36 509.945 542.68 509.135 542.68C508.239 542.68 507.663 542.403 507.407 541.848C507.407 543.384 507.705 544.515 508.303 545.24C508.943 545.965 509.945 546.328 511.311 546.328Z" fill="white"/>
<defs>
<linearGradient id="paint0_linear_150_19719" x1="488.5" y1="315.5" x2="520" y2="466" gradientUnits="userSpaceOnUse">
<stop stop-color="#FBB0D9"/>
<stop offset="1" stop-color="#A56BC6"/>
</linearGradient>
</defs>
</svg>
