<svg width="168" height="44" viewBox="0 0 168 44" fill="none" xmlns="http://www.w3.org/2000/svg">
<path d="M6.38904 1.80506L5.36108 2.26571C1.72964 3.89302 -0.416864 7.69744 0.067908 11.6472L0.3125 13.64C0.337545 13.8441 0.379106 14.0458 0.436774 14.2431L0.705021 15.161C0.712235 15.1857 0.725685 15.2081 0.744074 15.2261C0.818945 15.2993 0.943904 15.2751 0.985942 15.1792L1.44781 14.1255L1.84871 13.2762C2.27412 12.3751 3.18122 11.8002 4.17775 11.8002H4.67032C5.28052 11.8002 5.84487 12.124 6.15277 12.6508C6.30642 12.9137 6.38739 13.2127 6.38739 13.5172V14.1117C6.38739 14.9346 6.12747 15.7325 5.68827 16.4284C4.3625 18.5289 1.68876 23.343 2.5455 26.8253C2.85491 28.6908 3.65856 30.1726 4.65322 31.3388C7.89926 35.1445 13.4871 35.3956 18.4619 34.8744C18.4619 39.1673 21.3891 39.3462 23.0356 39.8828C24.2741 41.1574 26.1427 42.945 26.8115 43.5815C26.9715 43.7338 27.1836 43.8179 27.4046 43.8179C28.0673 43.8179 28.4835 43.1027 28.1561 42.5265L27.3043 41.0274C27.1445 40.7461 27.0604 40.4282 27.0604 40.1047V39.5251C27.0604 39.5251 29.8047 39.7039 33.2807 37.7363L38.6474 40.7574C39.0299 40.9727 39.5129 40.868 39.7718 40.5136C40.0337 40.1551 39.9823 39.6568 39.6527 39.3594L37.8543 37.7363C37.8543 37.7363 42.428 30.9393 38.2202 29.3294C37.6049 23.9146 36.9895 18.3379 36.2071 13.9062C35.5523 10.1977 34.6927 6.20483 32 3.57214C31.0495 2.07091 31.2541 0.11888 29.4349 0.00040374C29.3323 -0.0062797 29.2444 0.0708048 29.232 0.1729C29.0453 1.71331 29.4118 2.82695 29.6968 3.42521C29.8035 3.64916 29.652 3.95045 29.4051 3.97415C27.7681 4.13124 26.8728 4.51512 26.1408 4.98443C25.4736 5.41212 24.5986 5.16791 24.3267 4.42354C24.0763 3.73811 23.9056 3.0266 23.7015 2.32598C23.5721 1.88157 23.3892 1.3409 23.1141 0.57122C23.0724 0.454796 22.9401 0.402476 22.837 0.47074C22.5815 0.63994 22.1263 0.999411 21.755 1.60457C21.517 1.99239 21.3478 2.54837 21.2325 3.05376C21.0485 3.86031 21.1393 4.69638 21.3654 5.49216C21.7377 6.80272 21.6911 8.19689 21.2319 9.47959L19.2959 14.8877C18.5002 17.1105 18.0306 19.4369 17.9019 21.7943L17.4814 29.4945C17.4809 29.5036 17.4823 29.5127 17.4855 29.5213C17.5068 29.5787 17.4455 29.632 17.3916 29.6027L15.9823 28.8372C15.9281 28.8078 15.8783 28.771 15.8342 28.7279L15.5105 28.4114C14.9311 27.8449 14.5364 27.1133 14.4481 26.3079C14.345 25.3676 14.2596 24.0389 14.4055 22.8658C14.4932 22.1605 15.7196 20.2043 16.12 19.6171C17.7455 17.2331 18.7281 15.2219 18.952 12.3452C19.0488 11.1024 19.0002 9.73328 18.6449 8.40164C17.1943 2.96514 11.5237 -0.495896 6.38904 1.80506Z" fill="url(#paint0_linear_150_19760)"/>
<path d="M27.0821 39.5241C26.3747 39.3448 34.1564 27.1547 26.021 28.0511V23.7363H27.7904C27.8998 23.7363 28.0038 23.6892 28.076 23.6071L29.0078 22.5474C29.04 22.5108 29.0946 22.5045 29.1343 22.5327L29.7946 23.0019C29.9193 23.0905 30.0862 23.0032 30.0727 22.8508C30.0434 22.521 29.9616 22.0447 29.735 21.7767C29.523 21.5261 29.4341 21.4325 29.2114 21.3222C29.0983 21.2663 28.9637 21.2797 28.8586 21.3496C27.122 22.5036 27.7258 22.6567 26.021 22.4831C26.021 19.6185 27.6127 15.861 27.6127 15.861L32.2044 17.5695C32.2883 17.6007 32.3825 17.5692 32.4308 17.4938L34.5101 14.2476L35.3944 21.5975L33.6921 20.8132C33.5463 20.746 33.3693 20.7765 33.2964 20.9196C33.0784 21.3476 33.0626 22.0287 33.0784 22.4546C33.0843 22.6125 33.2692 22.6809 33.3824 22.5706L33.9805 21.9876C34.0066 21.9621 34.0443 21.9537 34.078 21.9675C34.2947 22.0564 35.1084 22.4248 35.7149 23.1694C35.7368 23.1963 35.7506 23.2302 35.7548 23.2647C37.1501 34.5149 33.0953 37.7314 33.0953 37.7314C33.0953 37.7314 29.4441 40.1751 27.0821 39.5241Z" fill="white"/>
<path d="M162.014 31.0729C161.056 31.0729 160.248 30.8933 159.589 30.5342C158.931 30.155 158.442 29.6761 158.123 29.0975C157.803 28.4989 157.644 27.8803 157.644 27.2418C157.644 26.5833 157.803 26.0146 158.123 25.5357C158.422 25.0368 158.791 24.6777 159.23 24.4582C160.008 23.0614 160.687 21.6546 161.266 20.2379C161.844 18.8012 162.393 17.2548 162.912 15.5986L167.341 15C167.441 17.5541 167.611 20.3177 167.85 23.2909C167.95 24.4881 168 25.3561 168 25.8949C168 27.1121 167.691 28.1098 167.072 28.888C166.454 29.6662 165.685 30.2249 164.767 30.5641C163.87 30.9033 162.952 31.0729 162.014 31.0729ZM161.056 28.7084C161.794 28.7084 162.413 28.4889 162.912 28.0499C163.411 27.6109 163.66 26.9025 163.66 25.9248C163.66 25.3262 163.6 24.4881 163.48 23.4106C163.281 21.1358 163.151 19.6094 163.091 18.8312C162.612 20.4075 161.804 22.2932 160.667 24.4881C161.126 24.7276 161.355 25.0768 161.355 25.5357C161.355 25.9148 161.226 26.254 160.966 26.5534C160.727 26.8527 160.417 27.0023 160.038 27.0023C159.619 27.0023 159.35 26.8726 159.23 26.6132C159.23 27.3316 159.37 27.8603 159.649 28.1996C159.949 28.5388 160.417 28.7084 161.056 28.7084Z" fill="white"/>
<path d="M151.395 31.0729C149.918 31.0729 148.771 30.6938 147.953 29.9355C147.134 29.1573 146.725 27.9501 146.725 26.3139C146.725 24.937 146.995 23.4205 147.534 21.7644C148.072 20.1082 148.95 18.6815 150.167 17.4842C151.385 16.267 152.931 15.6584 154.807 15.6584C157.002 15.6584 158.099 16.6162 158.099 18.5318C158.099 19.6492 157.78 20.6769 157.141 21.6147C156.503 22.5525 155.655 23.3108 154.597 23.8895C153.54 24.4482 152.412 24.7674 151.215 24.8472C151.175 25.4459 151.155 25.8449 151.155 26.0445C151.155 27.0222 151.325 27.6907 151.664 28.0499C152.003 28.3891 152.552 28.5587 153.31 28.5587C154.388 28.5587 155.306 28.3093 156.064 27.8104C156.842 27.3116 157.69 26.5533 158.608 25.5357H159.626C157.411 29.2271 154.667 31.0729 151.395 31.0729ZM151.454 23.4106C152.193 23.3707 152.891 23.1113 153.55 22.6324C154.228 22.1535 154.767 21.5449 155.166 20.8066C155.585 20.0683 155.794 19.2901 155.794 18.472C155.794 17.6538 155.545 17.2448 155.046 17.2448C154.328 17.2448 153.62 17.8733 152.921 19.1304C152.243 20.3875 151.754 21.8142 151.454 23.4106Z" fill="white"/>
<path d="M142.544 31.0131C141.886 31.0131 141.327 30.7836 140.868 30.3246C140.409 29.8657 140.18 29.307 140.18 28.6485C140.18 27.99 140.409 27.4313 140.868 26.9724C141.327 26.4935 141.886 26.254 142.544 26.254C143.203 26.254 143.761 26.4935 144.22 26.9724C144.699 27.4313 144.939 27.99 144.939 28.6485C144.939 29.307 144.699 29.8657 144.22 30.3246C143.761 30.7836 143.203 31.0131 142.544 31.0131Z" fill="white"/>
<path d="M129.036 31.013C127.56 31.013 126.392 30.6339 125.534 29.8757C124.676 29.1174 124.247 27.9202 124.247 26.2839C124.247 24.9071 124.517 23.4006 125.055 21.7644C125.594 20.1082 126.472 18.6815 127.689 17.4842C128.907 16.267 130.463 15.6584 132.359 15.6584C134.713 15.6584 135.98 17.0053 136.16 19.6991C136.599 19.5994 136.988 19.3599 137.327 18.9808C137.666 18.5817 137.986 18.1327 138.285 17.6339H139.243C138.704 18.7114 138.225 19.5594 137.806 20.178C137.387 20.7766 136.838 21.2655 136.16 21.6446C136.04 23.5203 135.651 25.1665 134.992 26.5832C134.354 28 133.516 29.0974 132.478 29.8757C131.441 30.6339 130.293 31.013 129.036 31.013ZM130.233 28.3192C130.972 28.3192 131.66 27.7206 132.299 26.5234C132.937 25.3261 133.376 23.8496 133.616 22.0936C133.137 21.914 132.897 21.4651 132.897 20.7467C132.897 19.9685 133.177 19.4497 133.735 19.1903C133.695 18.5518 133.586 18.1128 133.406 17.8733C133.246 17.6139 132.977 17.4842 132.598 17.4842C131.94 17.4842 131.311 17.9631 130.712 18.9209C130.114 19.8588 129.625 21.0061 129.246 22.363C128.887 23.6999 128.707 24.8772 128.707 25.8948C128.707 26.8526 128.817 27.5011 129.036 27.8403C129.256 28.1596 129.655 28.3192 130.233 28.3192Z" fill="white"/>
<path d="M115.448 15.9279H119.758L119.369 17.7836C120.048 17.185 120.656 16.726 121.195 16.4068C121.754 16.0875 122.352 15.9279 122.991 15.9279C123.629 15.9279 124.128 16.1473 124.487 16.5863C124.867 17.0253 125.056 17.5541 125.056 18.1727C125.056 18.7513 124.867 19.2602 124.487 19.6992C124.108 20.1381 123.579 20.3576 122.901 20.3576C122.462 20.3576 122.163 20.2579 122.003 20.0583C121.863 19.8388 121.754 19.5295 121.674 19.1305C121.614 18.8711 121.554 18.6815 121.494 18.5618C121.434 18.4421 121.325 18.3822 121.165 18.3822C120.746 18.3822 120.387 18.472 120.088 18.6516C119.808 18.8112 119.439 19.1005 118.98 19.5196L116.586 30.8933H112.276L115.448 15.9279Z" fill="white"/>
<path d="M101.265 31.0729C100.307 31.0729 99.5285 30.7736 98.9299 30.175C98.3512 29.5764 98.0619 28.6784 98.0619 27.4812C98.0619 26.9824 98.1417 26.3339 98.3013 25.5357L100.337 15.9279H104.647L102.492 26.1044C102.432 26.4037 102.402 26.683 102.402 26.9424C102.402 27.7606 102.701 28.1696 103.3 28.1696C103.859 28.1696 104.337 27.9401 104.736 27.4812C105.136 27.0023 105.455 26.3538 105.694 25.5357L107.73 15.9279H112.04L109.885 26.1044C109.805 26.4037 109.765 26.723 109.765 27.0622C109.765 27.4613 109.855 27.7506 110.034 27.9302C110.234 28.0898 110.553 28.1696 110.992 28.1696C111.551 28.1696 112.03 27.9302 112.429 27.4513C112.848 26.9724 113.177 26.3339 113.416 25.5357H114.674C113.935 27.6907 113.017 29.1573 111.92 29.9355C110.842 30.6938 109.755 31.0729 108.657 31.0729C107.799 31.0729 107.111 30.8335 106.592 30.3546C106.093 29.8757 105.794 29.1673 105.694 28.2295C105.016 29.3269 104.298 30.0752 103.539 30.4743C102.801 30.8734 102.043 31.0729 101.265 31.0729Z" fill="white"/>
<path d="M88.429 38.3761C87.4712 38.3761 86.6731 38.1266 86.0345 37.6278C85.396 37.1289 85.0767 36.4106 85.0767 35.4728C85.0767 34.3354 85.5357 33.4175 86.4536 32.7191C87.3714 32.0407 88.5388 31.472 89.9555 31.0131L90.3147 29.4267C89.297 30.5242 88.0998 31.0729 86.7229 31.0729C85.5856 31.0729 84.6378 30.6838 83.8795 29.9056C83.1213 29.1274 82.7421 27.9102 82.7421 26.254C82.7421 24.7774 83.0315 23.231 83.6101 21.6147C84.2087 19.9785 85.0867 18.6017 86.244 17.4843C87.4213 16.3469 88.8181 15.7782 90.4344 15.7782C91.2525 15.7782 91.8611 15.9179 92.2602 16.1972C92.6593 16.4766 92.8588 16.8457 92.8588 17.3047V17.4843L93.188 15.9279H97.4981L94.5349 29.8158C95.4927 29.4966 96.2609 29.0177 96.8396 28.3791C97.4183 27.7406 97.9071 26.7928 98.3062 25.5357H99.5633C99.0246 27.3116 98.2963 28.6186 97.3784 29.4566C96.4605 30.2748 95.4229 30.8335 94.2655 31.1328L93.8166 33.2878C93.4175 35.2233 92.7291 36.5503 91.7513 37.2686C90.7736 38.0069 89.6662 38.3761 88.429 38.3761ZM88.6685 28.1696C89.1274 28.1696 89.5963 27.9601 90.0752 27.5411C90.5541 27.122 90.8833 26.5533 91.0629 25.835L92.5894 18.7414C92.5894 18.5019 92.4896 18.2625 92.2901 18.023C92.0906 17.7636 91.7813 17.6339 91.3622 17.6339C90.5641 17.6339 89.8457 18.1028 89.2072 19.0407C88.5687 19.9586 88.0698 21.076 87.7107 22.3929C87.3515 23.6899 87.1719 24.8373 87.1719 25.835C87.1719 26.8327 87.3116 27.4712 87.5909 27.7506C87.8903 28.0299 88.2494 28.1696 88.6685 28.1696ZM87.7406 36.0415C88.0798 36.0415 88.4091 35.812 88.7283 35.353C89.0476 34.8941 89.297 34.2356 89.4766 33.3776L89.6562 32.5096C87.7007 33.2279 86.7229 34.076 86.7229 35.0537C86.7229 35.3131 86.8127 35.5426 86.9923 35.7421C87.1719 35.9417 87.4213 36.0415 87.7406 36.0415Z" fill="white"/>
<path d="M75.9242 31.0729C74.4476 31.0729 73.3002 30.6938 72.4821 29.9355C71.664 29.1573 71.2549 27.9501 71.2549 26.3139C71.2549 24.937 71.5243 23.4205 72.0631 21.7644C72.6018 20.1082 73.4798 18.6815 74.697 17.4842C75.9142 16.267 77.4606 15.6584 79.3363 15.6584C81.5312 15.6584 82.6287 16.6162 82.6287 18.5318C82.6287 19.6492 82.3094 20.6769 81.6709 21.6147C81.0324 22.5525 80.1843 23.3108 79.1268 23.8895C78.0692 24.4482 76.9418 24.7674 75.7446 24.8472C75.7047 25.4459 75.6847 25.8449 75.6847 26.0445C75.6847 27.0222 75.8543 27.6907 76.1936 28.0499C76.5328 28.3891 77.0815 28.5587 77.8398 28.5587C78.9173 28.5587 79.8352 28.3093 80.5934 27.8104C81.3716 27.3116 82.2197 26.5533 83.1375 25.5357H84.1552C81.9403 29.2271 79.1966 31.0729 75.9242 31.0729ZM75.984 23.4106C76.7223 23.3707 77.4207 23.1113 78.0792 22.6324C78.7576 22.1535 79.2964 21.5449 79.6955 20.8066C80.1145 20.0683 80.324 19.2901 80.324 18.472C80.324 17.6538 80.0746 17.2448 79.5758 17.2448C78.8574 17.2448 78.149 17.8733 77.4507 19.1304C76.7722 20.3875 76.2833 21.8142 75.984 23.4106Z" fill="white"/>
<path d="M67.3354 31.0729C66.1182 31.0729 65.2203 30.7537 64.6416 30.1151C64.0829 29.4566 63.8035 28.6485 63.8035 27.6907C63.8035 27.2717 63.8534 26.8028 63.9532 26.284C64.053 25.7452 64.1527 25.2264 64.2525 24.7276C64.3722 24.2287 64.4521 23.9094 64.492 23.7698C64.6516 23.0714 64.8012 22.383 64.9409 21.7045C65.0806 21.0261 65.1504 20.4774 65.1504 20.0583C65.1504 19.0407 64.7913 18.5318 64.0729 18.5318C63.5541 18.5318 63.0952 18.7912 62.6961 19.3101C62.297 19.8089 61.9778 20.4674 61.7383 21.2855L59.703 30.8933H55.3929L57.5779 20.5672C57.6378 20.3277 57.6677 20.0783 57.6677 19.8189C57.6677 18.9409 57.3684 18.5019 56.7698 18.5019C56.2111 18.5019 55.7222 18.7613 55.3032 19.2801C54.9041 19.779 54.5848 20.4474 54.3454 21.2855L52.3101 30.8933H48L51.1727 15.9279H55.4827L55.1535 17.4843C56.1712 16.3469 57.3883 15.7782 58.8051 15.7782C60.561 15.7782 61.5887 16.6362 61.888 18.3523C62.9854 16.6562 64.3722 15.8081 66.0484 15.8081C67.066 15.8081 67.8742 16.0875 68.4728 16.6462C69.0714 17.2049 69.3707 18.053 69.3707 19.1903C69.3707 19.769 69.3009 20.4175 69.1612 21.1358C69.0215 21.8342 68.822 22.6922 68.5626 23.7099C68.4029 24.3285 68.2533 24.9371 68.1136 25.5357C67.9939 26.1144 67.934 26.5733 67.934 26.9125C67.934 27.3116 68.0238 27.6209 68.2034 27.8404C68.383 28.0599 68.6923 28.1696 69.1313 28.1696C69.7299 28.1696 70.2088 27.9601 70.5679 27.5411C70.9271 27.1021 71.2863 26.4336 71.6455 25.5357H72.9026C72.1643 27.7306 71.3062 29.2072 70.3285 29.9655C69.3707 30.7038 68.373 31.0729 67.3354 31.0729Z" fill="white"/>
<defs>
<linearGradient id="paint0_linear_150_19760" x1="34.75" y1="15.25" x2="40" y2="40.3333" gradientUnits="userSpaceOnUse">
<stop stop-color="#FBB0D9"/>
<stop offset="1" stop-color="#A56BC6"/>
</linearGradient>
</defs>
</svg>
